<svg xmlns="http://www.w3.org/2000/svg" width="256" height="256" viewBox="0 0 100 100"><rect width="100" height="100" rx="20" fill="#f2f2fc" data-darkreader-inline-fill="" style="--darkreader-inline-fill: var(--darkreader-background-7d6ee7, #231683);"></rect><path fill="#0f0aaf" d="M10.15 77.20Q10.15 73.05 13.60 70.50Q17.05 67.95 21.40 67.95Q25.75 67.95 30.05 69.65L30.05 69.65Q32.65 62.35 34.35 50.85Q36.05 39.35 36.05 36.60Q36.05 33.85 33.85 31.45L33.85 31.45L33.85 30.05Q40.45 27.05 50.15 27.05L50.15 27.05L55.35 27.45Q55.95 28.55 55.95 31.75L55.95 31.75Q55.75 42.35 51.60 54.40Q47.45 66.45 40.85 74.95L40.85 74.95Q47.25 78.15 51.60 78.15Q55.95 78.15 59.75 74.10Q63.55 70.05 65.75 64.05L65.75 64.05Q70.15 51.75 70.15 41.40Q70.15 31.05 64.60 26.05Q59.05 21.05 48 21.05Q36.95 21.05 27.80 26.75Q18.65 32.45 18.65 40.05L18.65 40.05Q18.65 43.25 20.15 44.75Q21.65 46.25 24.45 47.15L24.45 47.15Q24.35 52.15 21.75 57.35L21.75 57.35Q17.45 56.55 13.90 52.65Q10.35 48.75 10.35 42.05L10.35 42.05Q10.35 29.65 22.65 21.45Q34.95 13.25 52.30 13.25Q69.65 13.25 79.75 20.50Q89.85 27.75 89.85 43.35L89.85 43.35Q89.85 53.65 85.60 63.55Q81.35 73.45 73.30 80.10Q65.25 86.75 55.35 86.75Q45.45 86.75 35.45 80.65L35.45 80.65Q28.45 86.65 21.45 86.65L21.45 86.65Q16.55 86.65 13.35 84Q10.15 81.35 10.15 77.20ZM21.95 79.15L21.95 79.15Q24.95 79.15 27.35 75.45L27.35 75.45Q24.65 73.85 22.80 73.85Q20.95 73.85 19.90 74.60Q18.85 75.35 18.85 76.45Q18.85 77.55 19.65 78.35Q20.45 79.15 21.95 79.15Z" data-darkreader-inline-fill="" style="--darkreader-inline-fill: var(--darkreader-background-ffffff, #181a1b);"></path></svg>