<svg xmlns="http://www.w3.org/2000/svg" version="1.1" xmlns:xlink="http://www.w3.org/1999/xlink" xmlns:svgjs="http://svgjs.dev/svgjs" width="1000" height="1000" viewBox="0 0 1000 1000"><rect width="1000" height="1000" fill="#046380"></rect><g transform="matrix(0.7,0,0,0.7,149.90044910179654,149.90044910179637)"><svg viewBox="0 0 334 334" data-background-color="#046380" preserveAspectRatio="xMidYMid meet" height="1000" width="1000" xmlns="http://www.w3.org/2000/svg" xmlns:xlink="http://www.w3.org/1999/xlink"><g id="tight-bounds" transform="matrix(1,0,0,1,0.04749999999998522,0.04750000000001364)"><svg viewBox="0 0 333.90454557049503 333.90454557049503" height="333.90454557049503" width="333.90454557049503"><g><svg></svg></g><g><svg viewBox="0 0 333.90454557049503 333.90454557049503" height="333.90454557049503" width="333.90454557049503"><g><path d="M0 166.952c0-92.205 74.747-166.952 166.952-166.952 92.205 0 166.952 74.747 166.953 166.952 0 92.205-74.747 166.952-166.953 166.953-92.205 0-166.952-74.747-166.952-166.953zM166.952 316.63c82.665 0 149.677-67.013 149.678-149.678 0-82.665-67.013-149.677-149.678-149.677-82.665 0-149.677 67.013-149.677 149.677 0 82.665 67.013 149.677 149.677 149.678z" data-fill-palette-color="tertiary" fill="#ffffff" stroke="transparent"></path><ellipse rx="160.27418187383762" ry="160.27418187383762" cx="166.95227278524752" cy="166.95227278524752" fill="#ffffff" stroke="transparent" stroke-width="0" fill-opacity="1" data-fill-palette-color="tertiary"></ellipse></g><g transform="matrix(1,0,0,1,78.35030642953402,71.17305217166896)"><svg viewBox="0 0 177.203932711427 191.55844122715712" height="191.55844122715712" width="177.203932711427"><g><svg viewBox="0 0 177.203932711427 191.55844122715712" height="191.55844122715712" width="177.203932711427"><g><svg viewBox="0 0 177.203932711427 191.55844122715712" height="191.55844122715712" width="177.203932711427"><g id="textblocktransform"><svg viewBox="0 0 177.203932711427 191.55844122715712" height="191.55844122715712" width="177.203932711427" id="textblock"><g><svg viewBox="0 0 177.203932711427 191.55844122715712" height="191.55844122715712" width="177.203932711427"><g transform="matrix(1,0,0,1,0,0)"><svg width="177.203932711427" viewBox="1.5 -38.25 35.79999923706055 38.70000076293945" height="191.55844122715712" data-palette-color="#046380"><path d="M2.25-26.8L2.25-26.8Q2.25-32.15 6.9-35.2 11.55-38.25 17.6-38.25L17.6-38.25Q25.35-38.25 31.2-33.8L31.2-33.8Q34.1-31.55 35.7-27.83 37.3-24.1 37.3-19.6L37.3-19.6Q37.3-10.75 32.25-5.2L32.25-5.2Q27 0.45 19.1 0.45L19.1 0.45Q17.35 0.45 15.4 0 13.45-0.45 12.3-1.2L12.3-1.2Q10.45 0.2 7.58 0.2 4.7 0.2 3.1-1.4 1.5-3 1.5-5.5L1.5-5.5Q1.5-11.4 10.45-15.55L10.45-15.55Q10.7-17.65 11.18-21.23 11.65-24.8 11.93-27 12.2-29.2 12.3-29.9L12.3-29.9Q14.35-31.2 17.05-31.2L17.05-31.2Q18.3-31.2 19.45-30.95L19.45-30.95 16.3-9.6Q15.85-6.75 15.05-4.85L15.05-4.85Q16.6-4.45 17.55-4.45L17.55-4.45Q23.3-4.45 26.45-8.8L26.45-8.8Q29.7-13.35 29.7-19.8L29.7-19.8Q29.7-28.05 23.75-31.65L23.75-31.65Q20.45-33.65 16.5-33.65L16.5-33.65Q11.45-33.65 8.5-30.9L8.5-30.9Q6.8-29.35 6.8-27.15L6.8-27.15Q6.8-26 7.5-24.98 8.2-23.95 9.95-23.8L9.95-23.8 9.45-20.55Q5.8-20.75 4.03-22.58 2.25-24.4 2.25-26.8ZM5.2-6.15L5.2-6.15Q5.2-4.35 6.9-4.35L6.9-4.35Q7.6-4.35 8.38-5.28 9.15-6.2 9.45-8.2L9.45-8.2 9.9-11.3Q5.2-8.65 5.2-6.15Z" opacity="1" transform="matrix(1,0,0,1,0,0)" fill="#046380" class="wordmark-text-0" data-fill-palette-color="quaternary" id="text-0"></path></svg></g></svg></g></svg></g></svg></g></svg></g></svg></g></svg></g><defs></defs></svg><rect width="333.90454557049503" height="333.90454557049503" fill="none" stroke="none" visibility="hidden"></rect></g></svg></g></svg>